<?xml version="1.0" ?>
<svg id="Layer_1" style="enable-background:new -199 81 40 40;" version="1.1" viewBox="-199 81 40 40" xml:space="preserve" xmlns="http://www.w3.org/2000/svg" xmlns:xlink="http://www.w3.org/1999/xlink"><path
  d="M-163.5,105.0009766c-0.8286133,0-1.5,0.671936-1.5,1.5V107h-4v3h4v2h-4v3h4v0.5009766  C-165,116.3291016-164.3286133,117-163.5,117s1.5-0.6708984,1.5-1.4990234v-9  C-162,105.6729126-162.6713867,105.0009766-163.5,105.0009766z"
  style="fill:#8BC53F;"/><path d="M-194,112v-2h4v-3h-4v-0.4990234c0-0.828064-0.6713867-1.5-1.5-1.5s-1.5,0.671936-1.5,1.5v9  C-197,116.3291016-196.3286133,117-195.5,117s1.5-0.6708984,1.5-1.4990234V115h4v-3H-194z" style="fill:#8BC53F;"/><path d="M-168,87.3203125C-168,86.593811-168.6118164,86-169.3389282,86h-2.3285522  C-172.3945313,86-173,86.593811-173,87.3203125V89l5,5V87.3203125z" style="fill:#B0A48C;"/><path
  d="M-168,101.8466797l1.067627,1.1035156c0.5112915,0.5272827,1.354126,0.5352173,1.8756104,0.0175781  l0.0530396-0.0527954c0.5106812-0.5078125,0.5197144-1.3339233,0.0206909-1.852478l-13.5559082-14.0840454  c-0.5160522-0.5360718-1.3759766-0.539978-1.8964844-0.0057983l-13.6929321,14.0517578  c-0.5205078,0.5331421-0.4956665,1.390564,0.0541382,1.8944702l0.1293945,0.1192017  c0.5267944,0.4813843,1.3413086,0.4569702,1.8383179-0.0546875L-191,101.8417969v14.4921875  C-191,116.6972656-190.7025757,117-190.3394165,117h6.6929321C-183.2827148,117-183,116.6972656-183,116.3339844v-7.6757813  C-183,108.2948608-182.6898804,108-182.3262329,108h5.6792603C-176.2832031,108-176,108.2948608-176,108.6582031v7.6776733  c0,0.3643188,0.3029785,0.6602173,0.666687,0.6602173l6.6677856,0.0018921c0.3631592,0,0.6655273-0.2977905,0.6655273-0.6610718  V101.8466797z M-180,104.3408813C-180,104.704895-180.2953491,105-180.659729,105h-1.680542  C-182.7046509,105-183,104.704895-183,104.3408813v-1.6817627C-183,102.295105-182.7046509,102-182.340271,102h1.680542  C-180.2953491,102-180,102.295105-180,102.6591187V104.3408813z M-180,100.3399048C-180,100.7044678-180.2953491,101-180.659668,101  h-1.6806641C-182.7046509,101-183,100.7044678-183,100.3399048v-1.6798096C-183,98.2955322-182.7046509,98-182.340332,98h1.6806641  C-180.2953491,98-180,98.2955322-180,98.6600952V100.3399048z M-176,104.3408813C-176,104.704895-176.2955322,105-176.6601563,105  h-1.6796875C-178.7044678,105-179,104.704895-179,104.3408813v-1.6817627C-179,102.295105-178.7044678,102-178.3398438,102  h1.6796875C-176.2955322,102-176,102.295105-176,102.6591187V104.3408813z M-176,100.3399048  C-176,100.7044678-176.2955322,101-176.6601563,101h-1.6796875C-178.7044678,101-179,100.7044678-179,100.3399048v-1.6798096  C-179,98.2955322-178.7044678,98-178.3398438,98h1.6796875C-176.2955322,98-176,98.2955322-176,98.6600952V100.3399048z"
  style="fill:#C48D52;"/></svg>
